<svg id="euSmgD26xOZ1" xmlns="http://www.w3.org/2000/svg" xmlns:xlink="http://www.w3.org/1999/xlink" viewBox="0 0 600 600" shape-rendering="geometricPrecision" text-rendering="geometricPrecision" project-id="5e3cb6bc101e4689beea962441fe633c" export-id="9cd9eca2faa84a2c9dc371535c1b7136" cached="false"><defs><filter id="euSmgD26xOZ8-filter" x="-150%" width="400%" y="-150%" height="400%"><feGaussianBlur id="euSmgD26xOZ8-filter-drop-shadow-0-blur" in="SourceAlpha" stdDeviation="8,8"/><feOffset id="euSmgD26xOZ8-filter-drop-shadow-0-offset" dx="0" dy="8" result="tmp"/><feFlood id="euSmgD26xOZ8-filter-drop-shadow-0-flood" flood-color="rgba(0,0,0,0.15)"/><feComposite id="euSmgD26xOZ8-filter-drop-shadow-0-composite" operator="in" in2="tmp"/><feMerge id="euSmgD26xOZ8-filter-drop-shadow-0-merge" result="result"><feMergeNode id="euSmgD26xOZ8-filter-drop-shadow-0-merge-node-1"/><feMergeNode id="euSmgD26xOZ8-filter-drop-shadow-0-merge-node-2" in="SourceGraphic"/></feMerge></filter><linearGradient id="euSmgD26xOZ35-fill" x1="-0.78" y1="6.34" x2="9.66" y2="6.34" spreadMethod="pad" gradientUnits="userSpaceOnUse" gradientTransform="translate(0 0)"><stop id="euSmgD26xOZ35-fill-0" offset="4%" stop-color="#efefef"/><stop id="euSmgD26xOZ35-fill-1" offset="21%" stop-color="#d8dbe6"/><stop id="euSmgD26xOZ35-fill-2" offset="45%" stop-color="#f7f7f7"/></linearGradient><linearGradient id="euSmgD26xOZ36-fill" x1="-0.78" y1="11.27" x2="9.66" y2="11.27" spreadMethod="pad" gradientUnits="userSpaceOnUse" gradientTransform="translate(0 0)"><stop id="euSmgD26xOZ36-fill-0" offset="4%" stop-color="#efefef"/><stop id="euSmgD26xOZ36-fill-1" offset="21%" stop-color="#d8dbe6"/><stop id="euSmgD26xOZ36-fill-2" offset="45%" stop-color="#f7f7f7"/></linearGradient><linearGradient id="euSmgD26xOZ37-fill" x1="-0.78" y1="11.27" x2="9.66" y2="11.27" spreadMethod="pad" gradientUnits="userSpaceOnUse" gradientTransform="translate(0 0)"><stop id="euSmgD26xOZ37-fill-0" offset="4%" stop-color="#efefef"/><stop id="euSmgD26xOZ37-fill-1" offset="21%" stop-color="#d8dbe6"/><stop id="euSmgD26xOZ37-fill-2" offset="45%" stop-color="#f7f7f7"/></linearGradient><linearGradient id="euSmgD26xOZ38-fill" x1="113.47" y1="203.25" x2="293.47" y2="203.25" spreadMethod="pad" gradientUnits="userSpaceOnUse" gradientTransform="translate(0 0)"><stop id="euSmgD26xOZ38-fill-0" offset="2%" stop-color="#efefef"/><stop id="euSmgD26xOZ38-fill-1" offset="5%" stop-color="#d8dbe6"/><stop id="euSmgD26xOZ38-fill-2" offset="11%" stop-color="#f7f7f7"/><stop id="euSmgD26xOZ38-fill-3" offset="89%" stop-color="#efefef"/><stop id="euSmgD26xOZ38-fill-4" offset="94%" stop-color="#d1d4de"/><stop id="euSmgD26xOZ38-fill-5" offset="100%" stop-color="#efefef"/></linearGradient><linearGradient id="euSmgD26xOZ39-fill" x1="201.8" y1="359.17" x2="201.8" y2="342.16" spreadMethod="pad" gradientUnits="userSpaceOnUse" gradientTransform="translate(0 0)"><stop id="euSmgD26xOZ39-fill-0" offset="16%" stop-color="rgba(216,219,230,0)"/><stop id="euSmgD26xOZ39-fill-1" offset="32%" stop-color="rgba(216,219,230,0.7)"/><stop id="euSmgD26xOZ39-fill-2" offset="52%" stop-color="rgba(216,219,230,0)"/></linearGradient><linearGradient id="euSmgD26xOZ40-fill" x1="0" y1="-5.26" x2="0" y2="3.01" spreadMethod="pad" gradientUnits="userSpaceOnUse" gradientTransform="translate(0 0)"><stop id="euSmgD26xOZ40-fill-0" offset="20%" stop-color="#b3b3b3"/><stop id="euSmgD26xOZ40-fill-1" offset="100%" stop-color="#ededed"/></linearGradient><linearGradient id="euSmgD26xOZ41-fill" x1="9.56" y1="-2.64" x2="9.56" y2="3.53" spreadMethod="pad" gradientUnits="userSpaceOnUse" gradientTransform="translate(0 0)"><stop id="euSmgD26xOZ41-fill-0" offset="20%" stop-color="#b3b3b3"/><stop id="euSmgD26xOZ41-fill-1" offset="100%" stop-color="#ededed"/></linearGradient></defs><g transform="matrix(.699349 0 0 0.705882-14.70705 33.614384)"><rect width="900" height="850" rx="0" ry="0" fill="none"/><rect width="400" height="70" rx="20" ry="20" transform="translate(250 80)" fill="#f8f9fa" stroke="#dfe1e5"/><text dx="0" dy="0" font-family="&quot;Arial&quot;" font-size="28" font-weight="400" transform="translate(270 125)" fill="#202124"><![CDATA[
medspa near me
]]></text><circle r="18" transform="translate(620 115)" fill="#4285f4"/><text dx="0" dy="0" font-family="&quot;Arial&quot;" font-size="18" font-weight="400" transform="translate(612 123)" fill="#fff"><![CDATA[
×
]]></text><rect width="400" height="280" rx="15" ry="15" transform="translate(250 160)" filter="url(#euSmgD26xOZ8-filter)" fill="#fff" stroke="#1a73e8" stroke-width="2"/><text dx="0" dy="0" font-family="&quot;Arial&quot;" font-size="32" font-weight="700" transform="translate(270 210)" fill="#202124"><![CDATA[
Your MedSpa
]]></text><g transform="translate(270 260)"><rect width="75" height="40" rx="15" ry="15" transform="translate(-5-25)" fill="#ffeb3b"/><text dx="0" dy="0" font-family="&quot;Arial&quot;" font-size="26" font-weight="700" transform="translate(12 2)" fill="#202124"><![CDATA[
4.9
]]></text><rect width="160" height="40" rx="5" ry="5" transform="translate(80-25)" opacity="0.8" fill="#fff9e6"/><text dx="0" dy="0" font-family="&quot;Arial&quot;" font-size="26" font-weight="400" transform="translate(90 0)" fill="#ffc107"><![CDATA[
★★★★★
]]></text><text dx="0" dy="0" font-family="&quot;Arial&quot;" font-size="22" font-weight="400" transform="translate(250 2)" fill="#202124"><![CDATA[
(1,838)
]]></text></g><text dx="0" dy="0" font-family="&quot;Arial&quot;" font-size="22" font-weight="400" transform="translate(270 310)" fill="#5f6368"><![CDATA[
Medical spa · 123 Main St
]]></text><text dx="0" dy="0" font-family="&quot;Arial&quot;" font-size="22" font-weight="400" transform="translate(270 340)" fill="#34a853"><![CDATA[
Open · Closes 9 PM
]]></text><rect width="200" height="40" rx="20" ry="20" transform="translate(340 380)" fill="none" stroke="#1a73e8" stroke-width="2"/><text dx="0" dy="0" font-family="&quot;Arial&quot;" font-size="18" font-weight="700" transform="translate(380 407)" fill="#1a73e8"><![CDATA[
BOOK ONLINE
]]></text><rect width="323" height="128" rx="10" ry="10" transform="translate(288 470)" fill="#fff" stroke="#dfe1e5"/><text dx="0" dy="0" font-family="&quot;Arial&quot;" font-size="20" font-weight="700" transform="translate(308 510)" fill="#202124"><![CDATA[
Your Competitor A
]]></text><g transform="translate(308 540)"><text dx="0" dy="0" font-family="&quot;Arial&quot;" font-size="18" font-weight="400" fill="#202124"><![CDATA[
4.4
]]></text><text dx="0" dy="0" font-family="&quot;Arial&quot;" font-size="18" font-weight="400" transform="translate(50 0)" fill="#ffc107"><![CDATA[
★★★★☆
]]></text><text dx="0" dy="0" font-family="&quot;Arial&quot;" font-size="18" font-weight="400" transform="translate(150 0)" fill="#202124"><![CDATA[
(156)
]]></text></g><text dx="0" dy="0" font-family="&quot;Arial&quot;" font-size="16" font-weight="400" transform="translate(308 580)" fill="#5f6368"><![CDATA[
Medical spa · 456 Elm St
]]></text><rect width="323" height="128" rx="10" ry="10" transform="translate(288 618)" fill="#fff" stroke="#dfe1e5"/><text dx="0" dy="0" font-family="&quot;Arial&quot;" font-size="20" font-weight="700" transform="translate(308 658)" fill="#202124"><![CDATA[
Your Competitor B
]]></text><g transform="translate(308 688)"><text dx="0" dy="0" font-family="&quot;Arial&quot;" font-size="18" font-weight="400" fill="#202124"><![CDATA[
3.7
]]></text><text dx="0" dy="0" font-family="&quot;Arial&quot;" font-size="18" font-weight="400" transform="translate(50 0)" fill="#ffc107"><![CDATA[
★★★☆☆
]]></text><text dx="0" dy="0" font-family="&quot;Arial&quot;" font-size="18" font-weight="400" transform="translate(150 0)" fill="#202124"><![CDATA[
(123)
]]></text></g><text dx="0" dy="0" font-family="&quot;Arial&quot;" font-size="16" font-weight="400" transform="translate(308 728)" fill="#5f6368"><![CDATA[
Medical spa · 789 Oak St
]]></text></g><g transform="matrix(2.34988 0 0 1.930928-557.290499-179.555798)"><rect width="8.7" height="12.68" rx="1.47" ry="1.47" transform="translate(123.2 92.42)" fill="url(#euSmgD26xOZ35-fill)"/><rect width="8.7" height="22.55" rx="1.97" ry="1.97" transform="translate(123.2 115.27)" fill="url(#euSmgD26xOZ36-fill)"/><rect width="8.7" height="22.55" rx="1.97" ry="1.97" transform="translate(123.2 142.98)" fill="url(#euSmgD26xOZ37-fill)"/><path d="M255.53,51h-107.46c-11.733417.032959-21.237041,9.536583-21.27,21.27v262c.032959,11.733417,9.536583,21.237041,21.27,21.27h107.46c11.733417-.032959,21.237041-9.536583,21.27-21.27v-262c-.032959-11.733417-9.536583-21.237041-21.27-21.27ZM267.8,334.23c0,6.776534-5.493466,12.27-12.27,12.27h-107.46c-6.776534,0-12.27-5.493466-12.27-12.27v-262c.022041-6.760908,5.509056-12.230036,12.27-12.23h15.73c.552285,0,1,.447715,1,1v1.11c.010996,4.629107,3.760893,8.379004,8.39,8.39h57.23c4.629107-.010996,8.379004-3.760893,8.39-8.39v-1.11c0-.552285.447715-1,1-1h15.73c6.772628.00552,12.260002,5.497369,12.26,12.27Z" transform="translate(162.090512 60.503897)" fill="url(#euSmgD26xOZ38-fill)"/><path d="M255.53,351h-107.46c-11.733417-.032959-21.237041-9.536583-21.27-21.27v4.5c.032959,11.733417,9.536583,21.237041,21.27,21.27h107.46c11.733417-.032959,21.237041-9.536583,21.27-21.27v-4.5c-.032959,11.733417-9.536583,21.237041-21.27,21.27Z" fill="url(#euSmgD26xOZ39-fill)"/><circle r="1.72" transform="translate(217.71 62.59)" fill="url(#euSmgD26xOZ40-fill)"/><rect width="19.13" height="2.56" rx="1.28" ry="1.28" transform="translate(192.24 61.31)" fill="url(#euSmgD26xOZ41-fill)"/></g></svg>
